<?xml version="1.0" encoding="utf-8"?>
<!-- Generator: Adobe Illustrator 21.0.0, SVG Export Plug-In . SVG Version: 6.00 Build 0)  -->
<svg version="1.1" id="Capa_1" xmlns="http://www.w3.org/2000/svg" xmlns:xlink="http://www.w3.org/1999/xlink" x="0px" y="0px"
	 viewBox="0 0 54 54" style="enable-background:new 0 0 54 54;" xml:space="preserve">
<style type="text/css">
	.st0{fill:#CFA674;}
</style>
<circle class="st0" cx="11" cy="14" r="3"/>
<path class="st0" d="M37,11.6v21.3c0.3,0.1,0.6,0.4,0.6,0.8c0,0.4-0.2,0.8-0.6,1v15.7l15-7.9V3.7L37,11.6z M44.3,30.8
	c-1,1.2-2.1,2.1-3.4,2.8c-0.2,0.1-0.3,0.1-0.5,0.1c-0.4,0-0.7-0.2-0.9-0.5c-0.2-0.5-0.1-1.1,0.4-1.3c1-0.5,2-1.3,2.7-2.3
	c0.3-0.4,1-0.5,1.4-0.2C44.5,29.8,44.6,30.4,44.3,30.8z M46.4,27.1c-0.2,0.4-0.5,0.6-0.9,0.6c-0.1,0-0.2,0-0.4-0.1
	c-0.5-0.2-0.8-0.8-0.6-1.3c0.4-1.1,0.8-2.3,1-3.7c0.1-0.5,0.6-0.9,1.2-0.8c0.5,0.1,0.9,0.6,0.8,1.2C47.2,24.5,46.8,25.9,46.4,27.1z
	 M48,19c0,0.5-0.5,0.9-1,0.9h-0.1c-0.5,0-1-0.5-0.9-1.1C46,18,46.1,17,46.1,16c0-0.3,0-0.7,0-1c0-0.5,0.4-1,1-1c0.5,0,1,0.4,1,1
	c0,0.4,0,0.7,0,1.1C48.1,17,48,18,48,19z M32.8,32.5c0.8,0.1,1.5,0.2,2.2,0.3V11.6L20,3.7v26.5c0.3,0,0.6,0,0.9,0c0,0,0,0,0,0
	c0.5,0,1,0.4,1,1s-0.4,1-1,1c-0.3,0-0.6,0-1,0.1v12.2l15,6.2V34.8c-0.8,0-1.7-0.1-2.6-0.3c-0.5-0.1-0.9-0.6-0.8-1.2
	C31.7,32.8,32.3,32.4,32.8,32.5z M29.7,32.7c-0.2,0.4-0.5,0.6-0.9,0.6c-0.1,0-0.2,0-0.4-0.1C28,33.1,27.8,33,27.7,33
	c-1-0.2-2-0.5-2.9-0.6c-0.5-0.1-0.9-0.6-0.8-1.1c0.1-0.5,0.6-0.9,1.1-0.8c1,0.2,2.1,0.4,3.2,0.7c0.1,0,0.1,0,0.2,0.1
	c0,0,0.3,0.1,0.7,0.3C29.7,31.6,29.9,32.2,29.7,32.7z M16.7,30.7c0.4-0.1,0.8-0.2,1.3-0.3v-27L2,8.7v40.9l16-5.3V32.4
	c-0.2,0-0.5,0.1-0.8,0.2c-0.1,0-0.2,0-0.3,0c-0.4,0-0.8-0.3-1-0.7C15.9,31.3,16.2,30.8,16.7,30.7z M9.1,39.6C8.2,41.5,8,43.1,8,43.1
	C7.9,43.6,7.5,44,7,44c0,0-0.1,0-0.1,0c-0.5-0.1-0.9-0.6-0.8-1.1c0-0.1,0.3-1.9,1.3-4.1c0.2-0.5,0.8-0.7,1.3-0.5
	C9.1,38.5,9.3,39.1,9.1,39.6z M8.3,24.7c-0.4-0.4-0.4-1,0-1.4c0.4-0.4,1-0.4,1.4,0l1.3,1.3l1.3-1.3c0.4-0.4,1-0.4,1.4,0
	c0.4,0.4,0.4,1,0,1.4L12.4,26l1.3,1.3c0.4,0.4,0.4,1,0,1.4C13.5,28.9,13.3,29,13,29s-0.5-0.1-0.7-0.3L11,27.4l-1.3,1.3
	C9.5,28.9,9.3,29,9,29s-0.5-0.1-0.7-0.3c-0.4-0.4-0.4-1,0-1.4L9.6,26L8.3,24.7z M13.9,34c-1,0.6-2,1.5-2.8,2.4
	c-0.2,0.2-0.5,0.4-0.8,0.4c-0.2,0-0.5-0.1-0.6-0.2c-0.4-0.4-0.5-1-0.1-1.4c0.9-1.1,2-2.1,3.2-2.8c0.5-0.3,1.1-0.2,1.4,0.3
	C14.5,33.1,14.3,33.7,13.9,34z M12,18.9V21c0,0.5-0.5,1-1,1s-1-0.5-1-1v-2.1c-2.3-0.5-4-2.5-4-4.9c0-2.8,2.2-5,5-5s5,2.2,5,5
	C16,16.4,14.3,18.4,12,18.9z"/>
</svg>
